v -1.000000 0.000000 1.000000
v 1.000000 0.000000 1.000000
v -1.000000 0.000000 -1.000000
v 1.000000 0.000000 -1.000000
v -0.795112 0.468818 0.795112
v 0.795112 0.468818 0.795112
v -0.795112 0.468818 -0.795112
v 0.795112 0.468818 -0.795112
v -1.000000 0.468818 -1.000000
v -1.000000 0.468818 1.000000
v 1.000000 0.468818 1.000000
v 1.000000 0.468818 -1.000000
v -0.535503 0.283253 0.535503
v 0.535503 0.283253 0.535503
v -0.535503 0.283253 -0.535503
v 0.535503 0.283253 -0.535503
v -0.795112 0.283253 -0.795112
v -0.795112 0.283253 0.795112
v 0.795112 0.283253 0.795112
v 0.795112 0.283253 -0.795112
v -0.535503 1.373772 0.535503
v 0.535503 1.373772 0.535503
v -0.535503 1.373772 -0.535503
v 0.535503 1.373772 -0.535503
v 0.535503 1.132906 -0.535503
v 0.535503 1.132906 0.535503
v -0.535503 1.132906 0.535503
v -0.535503 1.132906 -0.535503
v -0.747441 1.373772 -0.747441
v -0.747441 1.373772 0.747441
v 0.747441 1.373772 0.747441
v 0.747441 1.373772 -0.747441
v 0.747441 1.132906 -0.747441
v -0.747441 1.132906 0.747441
v 0.747441 1.132906 0.747441
v -0.747441 1.132906 -0.747441
vt 0.000000 0.000000
vt 0.000000 1.000000
vt 1.000000 1.000000
vt 1.000000 0.000000
vt 0.897556 0.102444
vt 0.897556 0.897556
vt 0.897556 0.897556
vt 0.897556 0.102444
vt 0.000000 1.000000
vt 1.000000 1.000000
vt 1.000000 0.000000
vt 0.000000 0.000000
vt 0.102444 0.102444
vt 0.102444 0.897556
vt 0.232249 0.232249
vt 0.767751 0.232249
vt 0.767751 0.232249
vt 0.232249 0.232249
vt 0.102444 0.102444
vt 0.102444 0.897556
vt 0.232249 0.232249
vt 0.232249 0.767751
vt 0.767751 0.232249
vt 0.767751 0.767751
vt 0.232249 0.232249
vt 0.767751 0.232249
vt 0.767751 0.767751
vt 0.232249 0.767751
vt 0.767751 0.767751
vt 0.232249 0.767751
vt 0.232249 0.767751
vt 0.232249 0.767751
vt 0.232249 0.232249
vt 0.767751 0.767751
vt 0.767751 0.767751
vt 0.767751 0.232249
vn 0.0000 -1.0000 0.0000
vn -1.0000 0.0000 0.0000
vn 0.0000 0.0000 -1.0000
vn 0.0000 0.0000 1.0000
vn 1.0000 0.0000 0.0000
vn 0.0000 1.0000 0.0000
usemtl None
s off
f 1/1/1 3/2/1 4/3/1 2/4/1
f 6/5/2 8/6/2 20/7/2 19/8/2
f 4/3/3 3/2/3 9/9/3 12/10/3
f 1/1/4 2/4/4 11/11/4 10/12/4
f 2/4/5 4/3/5 12/10/5 11/11/5
f 3/2/2 1/1/2 10/12/2 9/9/2
f 5/13/6 7/14/6 9/9/6 10/12/6
f 6/5/6 5/13/6 10/12/6 11/11/6
f 8/6/6 6/5/6 11/11/6 12/10/6
f 7/14/6 8/6/6 12/10/6 9/9/6
f 27/15/1 26/16/1 35/17/1 34/18/1
f 7/14/5 5/13/5 18/19/5 17/20/5
f 8/6/4 7/14/4 17/20/4 20/7/4
f 5/13/3 6/5/3 19/8/3 18/19/3
f 13/21/6 15/22/6 17/20/6 18/19/6
f 14/23/6 13/21/6 18/19/6 19/8/6
f 16/24/6 14/23/6 19/8/6 20/7/6
f 15/22/6 16/24/6 20/7/6 17/20/6
f 21/25/6 22/26/6 24/27/6 23/28/6
f 23/28/6 24/27/6 32/29/6 29/30/6
f 28/31/1 27/15/1 34/18/1 36/32/1
f 21/25/6 23/28/6 29/30/6 30/33/6
f 13/21/4 14/23/4 26/16/4 27/15/4
f 16/24/3 15/22/3 28/31/3 25/34/3
f 15/22/2 13/21/2 27/15/2 28/31/2
f 14/23/5 16/24/5 25/34/5 26/16/5
f 35/17/5 33/35/5 32/29/5 31/36/5
f 36/32/2 34/18/2 30/33/2 29/30/2
f 33/35/3 36/32/3 29/30/3 32/29/3
f 34/18/4 35/17/4 31/36/4 30/33/4
f 22/26/6 21/25/6 30/33/6 31/36/6
f 26/16/1 25/34/1 33/35/1 35/17/1
f 25/34/1 28/31/1 36/32/1 33/35/1
f 24/27/6 22/26/6 31/36/6 32/29/6
